<svg width="0" height="0" class="hidden">
    <symbol xmlns="http://www.w3.org/2000/svg" viewBox="0 0 512 512" id="email">
        <path d="M339.392 258.624L512 367.744V144.896zM0 144.896v222.848l172.608-109.12zM480 80H32C16.032 80 3.36 91.904.96 107.232L256 275.264l255.04-168.032C508.64 91.904 495.968 80 480 80zM310.08 277.952l-45.28 29.824a15.983 15.983 0 01-8.8 2.624c-3.072 0-6.112-.864-8.8-2.624l-45.28-29.856L1.024 404.992C3.488 420.192 16.096 432 32 432h448c15.904 0 28.512-11.808 30.976-27.008L310.08 277.952z"></path>
    </symbol>
    <symbol xmlns="http://www.w3.org/2000/svg" viewBox="0 0 478.613 478.613" id="github">
        <path d="M427.501 200.695c1.776-11.238 2.884-23.56 3.163-37.377-.107-59.246-28.468-80.21-33.925-90.038 8.037-44.89-1.331-65.309-5.688-72.299-16.07-5.704-55.91 14.722-77.678 29.101-35.491-10.389-110.494-9.375-138.621 2.689C122.856-4.389 95.408 1.277 95.408 1.277s-17.745 31.82-4.691 78.371c-17.075 21.759-29.802 37.143-29.802 77.949 0 9.773.607 19.008 1.637 27.893 14.705 77.318 75.97 110.674 136.15 116.426-9.056 6.881-19.928 19.903-21.432 34.992-11.379 7.357-34.268 9.789-52.067 4.193-24.939-7.88-34.486-57.266-71.833-50.221-8.081 1.512-6.475 6.842.523 11.386 11.378 7.38 22.094 16.554 30.354 36.185 6.344 15.072 19.687 41.982 61.873 41.982 16.747 0 28.477-1.979 28.477-1.979s.319 38.406.319 53.385c0 17.238-23.264 22.078-23.264 30.348 0 3.289 7.7 3.601 13.888 3.601 12.229 0 37.673-10.186 37.673-28.103 0-14.237.227-62.081.227-70.46 0-18.307 9.811-24.136 9.811-24.136s1.201 97.727-2.361 110.829c-4.177 15.408-11.744 13.219-11.744 20.076 0 10.233 30.589 2.502 40.735-19.897 7.849-17.495 4.334-113.331 4.334-113.331l8.183-.178s.094 43.892-.188 63.944c-.295 20.769-2.438 47.025 9.898 59.417 8.097 8.15 32.903 22.451 32.903 9.382 0-7.574-17.371-13.833-17.371-34.353V344.45c10.553 0 12.734 31.072 12.734 31.072l3.804 57.727s-2.526 21.065 22.756 29.856c8.925 3.126 28.018 3.976 28.913-1.271.897-5.26-22.99-13.038-23.217-29.342-.123-9.93.445-15.742.445-58.934 0-43.168-5.799-59.137-26.007-71.863 58.601-6.014 119.468-32.185 130.433-101z"></path>
    </symbol>
    <symbol xmlns="http://www.w3.org/2000/svg" viewBox="0 0 24 24" id="linkedin">
        <path d="M23.994 24v-.001H24v-8.802c0-4.306-.927-7.623-5.961-7.623-2.42 0-4.044 1.328-4.707 2.587h-.07V7.976H8.489v16.023h4.97v-7.934c0-2.089.396-4.109 2.983-4.109 2.549 0 2.587 2.384 2.587 4.243V24zM.396 7.977h4.976V24H.396zM2.882 0C1.291 0 0 1.291 0 2.882s1.291 2.909 2.882 2.909 2.882-1.318 2.882-2.909A2.884 2.884 0 002.882 0z"></path>
    </symbol>
    <symbol xmlns="http://www.w3.org/2000/svg" viewBox="0 0 387.2 387.2" id="phone">
        <path d="M304.8 10.84v-.04A36.64 36.64 0 00278.84 0H108.32C88.067.066 71.666 16.467 71.6 36.72v313.72a36.64 36.64 0 0010.8 25.96 36.642 36.642 0 0025.92 10.8h170.56a36.642 36.642 0 0025.92-10.8 36.642 36.642 0 0010.8-25.92V36.76a36.642 36.642 0 00-10.8-25.92zM193.6 362.28c-5.479 0-9.92-4.441-9.92-9.92s4.441-9.92 9.92-9.92 9.92 4.441 9.92 9.92-4.441 9.92-9.92 9.92zM286.44 300c0 13.255-10.745 24-24 24H124.72c-13.255 0-24-10.745-24-24V66.2c0-13.255 10.745-24 24-24h137.76c13.255 0 24 10.745 24 24l-.04 233.8z"></path>
    </symbol>
</svg>